<svg id="Ebene_1" data-name="Ebene 1" xmlns="http://www.w3.org/2000/svg" xmlns:xlink="http://www.w3.org/1999/xlink" viewBox="0 0 74 74"><defs><style>.cls-1{fill:#32d4fe;}.cls-2{fill:url(#Unbenannter_Verlauf_2);}.cls-3{fill:url(#Unbenannter_Verlauf_3);}.cls-4{fill:url(#Unbenannter_Verlauf_3-2);}</style><radialGradient id="Unbenannter_Verlauf_2" cx="255.01" cy="898.37" r="0" gradientTransform="translate(319.56 -1363.85) scale(1.5 1.98)" gradientUnits="userSpaceOnUse"><stop offset="0" stop-color="#cececf"/><stop offset="0.15" stop-color="#a2a1a2"/><stop offset="0.33" stop-color="#797778"/><stop offset="0.51" stop-color="#5b5a5c"/><stop offset="0.69" stop-color="#48484a"/><stop offset="0.85" stop-color="#3e3e40"/><stop offset="1" stop-color="#3a3b3c"/></radialGradient><radialGradient id="Unbenannter_Verlauf_3" cx="12.88" cy="760.2" r="0.81" gradientTransform="matrix(33.04, 0, 0, -33.02, 257.83, 25509.03)" gradientUnits="userSpaceOnUse"><stop offset="0.18" stop-color="#ffde00"/><stop offset="0.69" stop-color="#f39200"/><stop offset="0.73" stop-color="#e80"/><stop offset="0.81" stop-color="#e16f15"/><stop offset="0.91" stop-color="#ce4420"/><stop offset="1" stop-color="#be1622"/></radialGradient><radialGradient id="Unbenannter_Verlauf_3-2" cx="8.66" cy="763.64" r="0.4" gradientTransform="matrix(53.5, 0, 0, -53.48, 214.72, 41224.53)" xlink:href="#Unbenannter_Verlauf_3"/></defs><circle id="Ellipse_56" data-name="Ellipse 56" class="cls-1" cx="37" cy="37" r="37"/><g id="flame-1964066"><path id="Pfad_1254" data-name="Pfad 1254" class="cls-2" d="M703.34,413.13Z" transform="translate(-646 -347.5)"/><path id="Pfad_1252" data-name="Pfad 1252" class="cls-3" d="M701.07,389.5c0,8.12-5.36,16.27-12.47,18.71a8.22,8.22,0,0,1-6-1.57,7.41,7.41,0,0,1-3-6.31,14.54,14.54,0,0,1,.7-4.24c-2,8.16,10.24,10.25,15.14.71,4.3-8.38,1.52-20.12,1.52-21.54,0-.15,4.13,4.55,4.13,14.24Z" transform="translate(-646 -347.5)"/><path id="Pfad_1253" data-name="Pfad 1253" class="cls-4" d="M688.6,408.22a13.24,13.24,0,0,1-4.32.73c-7.9,0-11-6.68-11-11.55,0-2.65,1.5-6,7.1-12a19.81,19.81,0,0,0,5.8-13.94c0-2-.55-6.25-2.45-8.9a22.19,22.19,0,0,1-4.5,13.3c-4.9,6.65-11,12.8-11,17,0,7,2.57,9.37,2.83,9.59-.4-.31-6.43-4.94-6.43-12.39,0-7.7,6.85-12.9,9.45-16.49s6.65-9.2,4.9-18.09c0,0,12.27,4.25,12.4,17.09.05,5.05-2.72,12.1-7.2,17.09a15.56,15.56,0,0,0-3.79,6.44,14.54,14.54,0,0,0-.7,4.24,7.49,7.49,0,0,0,2.14,5.53,8.59,8.59,0,0,0,.91.79A8.29,8.29,0,0,0,688.6,408.22Z" transform="translate(-646 -347.5)"/></g></svg>