<svg id="Ebene_1" data-name="Ebene 1" xmlns="http://www.w3.org/2000/svg" viewBox="0 0 1000 1414.52">
    <defs>
        <style>.cls-1{fill:#ccc;}.cls-2{fill:#fff;}.cls-3{fill:#999;}</style>
    </defs>
    <rect class="cls-1" width="1000" height="1414.52"/>
    <path class="cls-2"
          d="M98.33,949.33c111.69-28.55,220.55-56.39,317.34-6.66,134.76,69.24,103.77,215.72,228,258.66,92.62,32,133.07-41.39,250.66-5.33,78.55,24.08,167.3,89.58,170.67,166.67,2.49,56.93-42.43,101.31-60,118.66-183.36,181.15-878.52,309.28-1094.67,1.34-86.34-123-114.76-323.91-32-417.34,3.24-3.65,6.62-6.46,12.42-11.7C-93.35,1039.27-26.69,981.3,98.33,949.33Z"/>
    <rect class="cls-3" x="220" y="80" width="560" height="234" rx="96.83"/>
    <rect class="cls-3" x="44.94" y="392.73" width="844.81" height="50" rx="18.67"/>
    <rect class="cls-3" x="44.94" y="454.06" width="765.84" height="50" rx="18.67"/>
    <rect class="cls-3" x="44.94" y="515.4" width="891.61" height="50" rx="18.67"/>
    <rect class="cls-3" x="44.94" y="576.73" width="851.62" height="50" rx="18.67"/>
    <rect class="cls-3" x="44.94" y="638.07" width="885.81" height="50" rx="18.67"/>
    <rect class="cls-3" x="44.94" y="699.4" width="798.73" height="50" rx="18.67"/>
    <rect class="cls-3" x="44.94" y="759.6" width="720.06" height="50" rx="18.67"/>
    <rect class="cls-3" x="44.94" y="820.94" width="586.29" height="50" rx="18.67"/>
    <rect class="cls-3" x="131.74" y="1064.07" width="12.44" height="87.06"/>
    <rect class="cls-3" x="131.74" y="1163.57" width="12.44" height="12.44"/>
    <rect class="cls-3" x="131.74" y="1188.45" width="12.44" height="12.44"/>
    <rect class="cls-3" x="131.74" y="1213.32" width="12.44" height="12.44"/>
    <rect class="cls-3" x="131.74" y="1238.2" width="12.44" height="24.88"/>
    <rect class="cls-3" x="131.74" y="1263.07" width="12.44" height="49.75"/>
    <rect class="cls-3" x="131.74" y="1312.82" width="12.44" height="12.44"/>
    <rect class="cls-3" x="144.18" y="1064.07" width="12.44" height="12.44"/>
    <rect class="cls-3" x="144.18" y="1138.7" width="12.44" height="12.44"/>
    <rect class="cls-3" x="144.18" y="1200.88" width="12.44" height="24.88"/>
    <rect class="cls-3" x="144.18" y="1238.2" width="12.44" height="12.44"/>
    <rect class="cls-3" x="144.18" y="1312.82" width="12.44" height="12.44"/>
    <rect class="cls-3" x="156.62" y="1064.07" width="12.44" height="12.44"/>
    <rect class="cls-3" x="156.62" y="1088.95" width="12.44" height="37.31"/>
    <rect class="cls-3" x="156.62" y="1138.7" width="12.44" height="12.44"/>
    <rect class="cls-3" x="156.62" y="1163.57" width="12.44" height="37.31"/>
    <rect class="cls-3" x="156.62" y="1238.2" width="12.44" height="12.44"/>
    <rect class="cls-3" x="156.62" y="1263.07" width="12.44" height="37.31"/>
    <rect class="cls-3" x="156.62" y="1312.82" width="12.44" height="12.44"/>
    <rect class="cls-3" x="169.05" y="1064.07" width="12.44" height="12.44"/>
    <rect class="cls-3" x="169.05" y="1088.95" width="12.44" height="37.31"/>
    <rect class="cls-3" x="169.05" y="1138.7" width="12.44" height="12.44"/>
    <rect class="cls-3" x="169.05" y="1163.57" width="12.44" height="12.44"/>
    <rect class="cls-3" x="169.05" y="1200.88" width="12.44" height="24.88"/>
    <rect class="cls-3" x="169.05" y="1238.2" width="12.44" height="12.44"/>
    <rect class="cls-3" x="169.05" y="1263.07" width="12.44" height="37.31"/>
    <rect class="cls-3" x="169.05" y="1312.82" width="12.44" height="12.44"/>
    <rect class="cls-3" x="181.49" y="1064.07" width="12.44" height="12.44"/>
    <rect class="cls-3" x="181.49" y="1088.95" width="12.44" height="37.31"/>
    <rect class="cls-3" x="181.49" y="1138.7" width="12.44" height="12.44"/>
    <rect class="cls-3" x="181.49" y="1176.01" width="12.44" height="24.88"/>
    <rect class="cls-3" x="181.49" y="1213.32" width="12.44" height="12.44"/>
    <rect class="cls-3" x="181.49" y="1238.2" width="12.44" height="12.44"/>
    <rect class="cls-3" x="181.49" y="1263.07" width="12.44" height="37.31"/>
    <rect class="cls-3" x="181.49" y="1312.82" width="12.44" height="12.44"/>
    <rect class="cls-3" x="193.93" y="1064.07" width="12.44" height="12.44"/>
    <rect class="cls-3" x="193.93" y="1138.7" width="12.44" height="12.44"/>
    <rect class="cls-3" x="193.93" y="1163.57" width="12.44" height="49.75"/>
    <rect class="cls-3" x="193.93" y="1238.2" width="12.44" height="12.44"/>
    <rect class="cls-3" x="193.93" y="1312.82" width="12.44" height="12.44"/>
    <rect class="cls-3" x="206.37" y="1064.07" width="12.44" height="87.06"/>
    <rect class="cls-3" x="206.37" y="1163.57" width="12.44" height="12.44"/>
    <rect class="cls-3" x="206.37" y="1188.45" width="12.44" height="12.44"/>
    <rect class="cls-3" x="206.37" y="1213.32" width="12.44" height="12.44"/>
    <rect class="cls-3" x="206.37" y="1238.2" width="12.44" height="24.88"/>
    <rect class="cls-3" x="206.37" y="1263.07" width="12.44" height="49.75"/>
    <rect class="cls-3" x="206.37" y="1312.82" width="12.44" height="12.44"/>
    <rect class="cls-3" x="218.8" y="1163.57" width="12.44" height="12.44"/>
    <rect class="cls-3" x="218.8" y="1188.45" width="12.44" height="37.31"/>
    <rect class="cls-3" x="231.24" y="1064.07" width="12.44" height="24.88"/>
    <rect class="cls-3" x="231.24" y="1101.39" width="12.44" height="12.44"/>
    <rect class="cls-3" x="231.24" y="1138.7" width="12.44" height="24.88"/>
    <rect class="cls-3" x="231.24" y="1200.88" width="12.44" height="12.44"/>
    <rect class="cls-3" x="231.24" y="1225.76" width="12.44" height="37.31"/>
    <rect class="cls-3" x="231.24" y="1275.51" width="12.44" height="24.88"/>
    <rect class="cls-3" x="231.24" y="1312.82" width="12.44" height="12.44"/>
    <rect class="cls-3" x="243.68" y="1064.07" width="12.44" height="37.31"/>
    <rect class="cls-3" x="243.68" y="1113.82" width="12.44" height="24.88"/>
    <rect class="cls-3" x="243.68" y="1163.57" width="12.44" height="49.75"/>
    <rect class="cls-3" x="243.68" y="1225.76" width="12.44" height="37.31"/>
    <rect class="cls-3" x="243.68" y="1275.51" width="12.44" height="12.44"/>
    <rect class="cls-3" x="256.12" y="1064.07" width="12.44" height="12.44"/>
    <rect class="cls-3" x="256.12" y="1088.95" width="12.44" height="12.44"/>
    <rect class="cls-3" x="256.12" y="1138.7" width="12.44" height="12.44"/>
    <rect class="cls-3" x="256.12" y="1163.57" width="12.44" height="12.44"/>
    <rect class="cls-3" x="256.12" y="1250.63" width="12.44" height="12.44"/>
    <rect class="cls-3" x="256.12" y="1275.51" width="12.44" height="12.44"/>
    <rect class="cls-3" x="268.55" y="1088.95" width="12.44" height="49.75"/>
    <rect class="cls-3" x="268.55" y="1151.14" width="12.44" height="62.19"/>
    <rect class="cls-3" x="268.55" y="1225.76" width="12.44" height="24.87"/>
    <rect class="cls-3" x="268.55" y="1275.51" width="12.44" height="12.44"/>
    <rect class="cls-3" x="280.99" y="1064.07" width="12.44" height="12.44"/>
    <rect class="cls-3" x="280.99" y="1088.95" width="12.44" height="12.44"/>
    <rect class="cls-3" x="280.99" y="1126.26" width="12.44" height="62.19"/>
    <rect class="cls-3" x="280.99" y="1213.32" width="12.44" height="12.44"/>
    <rect class="cls-3" x="280.99" y="1238.2" width="12.44" height="12.44"/>
    <rect class="cls-3" x="280.99" y="1263.07" width="12.44" height="12.44"/>
    <rect class="cls-3" x="280.99" y="1287.95" width="12.44" height="12.44"/>
    <rect class="cls-3" x="293.43" y="1176.01" width="12.44" height="12.44"/>
    <rect class="cls-3" x="293.43" y="1263.07" width="12.44" height="12.44"/>
    <rect class="cls-3" x="293.43" y="1300.38" width="12.44" height="12.44"/>
    <rect class="cls-3" x="293.43" y="1312.82" width="12.44" height="12.44"/>
    <rect class="cls-3" x="305.86" y="1064.07" width="12.44" height="87.06"/>
    <rect class="cls-3" x="305.86" y="1163.57" width="12.44" height="24.88"/>
    <rect class="cls-3" x="305.86" y="1200.88" width="12.44" height="12.44"/>
    <rect class="cls-3" x="305.86" y="1225.76" width="12.44" height="12.44"/>
    <rect class="cls-3" x="305.86" y="1263.07" width="12.44" height="37.31"/>
    <rect class="cls-3" x="318.3" y="1064.07" width="12.44" height="12.44"/>
    <rect class="cls-3" x="318.3" y="1138.7" width="12.44" height="12.44"/>
    <rect class="cls-3" x="318.3" y="1200.88" width="12.44" height="24.88"/>
    <rect class="cls-3" x="318.3" y="1238.2" width="12.44" height="24.88"/>
    <rect class="cls-3" x="318.3" y="1263.07" width="12.44" height="49.75"/>
    <rect class="cls-3" x="330.74" y="1064.07" width="12.44" height="12.44"/>
    <rect class="cls-3" x="330.74" y="1088.95" width="12.44" height="37.31"/>
    <rect class="cls-3" x="330.74" y="1138.7" width="12.44" height="12.44"/>
    <rect class="cls-3" x="330.74" y="1200.88" width="12.44" height="12.44"/>
    <rect class="cls-3" x="330.74" y="1250.63" width="12.44" height="12.44"/>
    <rect class="cls-3" x="330.74" y="1263.07" width="12.44" height="24.88"/>
    <rect class="cls-3" x="330.74" y="1312.82" width="12.44" height="12.44"/>
    <rect class="cls-3" x="343.18" y="1064.07" width="12.44" height="12.44"/>
    <rect class="cls-3" x="343.18" y="1088.95" width="12.44" height="37.31"/>
    <rect class="cls-3" x="343.18" y="1138.7" width="12.44" height="12.44"/>
    <rect class="cls-3" x="343.18" y="1163.57" width="12.44" height="49.75"/>
    <rect class="cls-3" x="343.18" y="1225.76" width="12.44" height="24.87"/>
    <rect class="cls-3" x="343.18" y="1275.51" width="12.44" height="12.44"/>
    <rect class="cls-3" x="355.61" y="1064.07" width="12.44" height="12.44"/>
    <rect class="cls-3" x="355.61" y="1088.95" width="12.44" height="37.31"/>
    <rect class="cls-3" x="355.61" y="1138.7" width="12.44" height="12.44"/>
    <rect class="cls-3" x="355.61" y="1188.45" width="12.44" height="37.31"/>
    <rect class="cls-3" x="355.61" y="1250.63" width="12.44" height="12.44"/>
    <rect class="cls-3" x="355.61" y="1275.51" width="12.44" height="12.44"/>
    <rect class="cls-3" x="355.61" y="1300.38" width="12.44" height="12.44"/>
    <rect class="cls-3" x="368.05" y="1064.07" width="12.44" height="12.44"/>
    <rect class="cls-3" x="368.05" y="1138.7" width="12.44" height="12.44"/>
    <rect class="cls-3" x="368.05" y="1163.57" width="12.44" height="12.44"/>
    <rect class="cls-3" x="368.05" y="1200.88" width="12.44" height="12.44"/>
    <rect class="cls-3" x="368.05" y="1225.76" width="12.44" height="24.87"/>
    <rect class="cls-3" x="368.05" y="1275.51" width="12.44" height="12.44"/>
    <rect class="cls-3" x="368.05" y="1312.82" width="12.44" height="12.44"/>
    <rect class="cls-3" x="380.49" y="1064.07" width="12.44" height="87.06"/>
    <rect class="cls-3" x="380.49" y="1163.57" width="12.44" height="12.44"/>
    <rect class="cls-3" x="380.49" y="1188.45" width="12.44" height="24.88"/>
    <rect class="cls-3" x="380.49" y="1238.2" width="12.44" height="12.44"/>
    <rect class="cls-3" x="380.49" y="1263.07" width="12.44" height="12.44"/>
</svg>